<svg xmlns="http://www.w3.org/2000/svg" viewBox="20 143.77588185300928 535.0005931093986 287.4482362939814"><rect height="100%" width="100%" x="20" y="143.77588185300928" fill="rgba(255, 255, 255, 1)"/> <g transform="rotate(0 145.3892514816876 287.5)"><svg xmlns="http://www.w3.org/2000/svg" viewBox="361.3299865722656 315.1099853515625 277.3399963378906 369.7900390625" height="147.44823629398144" width="110.77850296337523" y="213.77588185300928" x="90" preserveAspectRatio="xMinYMin" style="overflow: visible;"><path class="cls-1" d="m546.22,592.45h-92.45c0,51.06,41.39,92.45,92.45,92.45h0v-92.45Z" style="fill: #ecd80c;"></path><rect class="cls-5" x="453.78" y="407.55" width="92.45" height="184.89" style="fill: #fe4b79;"></rect><rect class="cls-3" x="453.78" y="315.11" width="92.45" height="184.89" transform="translate(1000 815.11) rotate(-180)" style="fill: #4e8eff;"></rect><rect class="cls-4" x="500" y="361.33" width="92.45" height="184.89" transform="translate(92.45 1000) rotate(-90)" style="fill: #6c30ed;"></rect><circle class="cls-6" cx="407.55" cy="453.78" r="46.22" style="fill: #00df98;"></circle><circle class="cls-2" cx="592.45" cy="638.67" r="46.22" style="fill: #f7941e;"></circle></svg></g> <g transform="rotate(0 357.5355967715079 287.5038501743766)"><svg y="265.3788501743766" viewBox="1.4700000286102295 12.520000457763672 254.92999267578125 44.25" x="230.07060043361733" height="44.25" width="254.92999267578125" style="overflow: visible;"><g fill="#000" style=""><path d="M1.47 15.30L21.93 15.30L21.93 18.50L13.69 18.50L13.69 45.50L9.75 45.50L9.75 18.50L1.47 18.50L1.47 15.30ZM28.82 17.90Q27.69 17.90 26.91 17.12Q26.13 16.34 26.13 15.21L26.13 15.21Q26.13 14.08 26.91 13.30Q27.69 12.52 28.82 12.52L28.82 12.52Q29.90 12.52 30.66 13.30Q31.42 14.08 31.42 15.21L31.42 15.21Q31.42 16.34 30.66 17.12Q29.90 17.90 28.82 17.90L28.82 17.90ZM26.78 21.75L30.72 21.75L30.72 45.50L26.78 45.50L26.78 21.75ZM66.00 21.32Q68.77 21.32 70.94 22.47Q73.10 23.62 74.36 25.91Q75.62 28.21 75.62 31.50L75.62 31.50L75.62 45.50L71.72 45.50L71.72 32.07Q71.72 28.51 69.96 26.63Q68.21 24.74 65.22 24.74L65.22 24.74Q62.14 24.74 60.32 26.71Q58.50 28.69 58.50 32.41L58.50 32.41L58.50 45.50L54.60 45.50L54.60 32.07Q54.60 28.51 52.84 26.63Q51.09 24.74 48.10 24.74L48.10 24.74Q45.02 24.74 43.20 26.71Q41.38 28.69 41.38 32.41L41.38 32.41L41.38 45.50L37.44 45.50L37.44 21.75L41.38 21.75L41.38 25.18Q42.55 23.31 44.52 22.32Q46.50 21.32 48.88 21.32L48.88 21.32Q51.87 21.32 54.17 22.66Q56.46 24.01 57.59 26.61L57.59 26.61Q58.59 24.09 60.88 22.71Q63.18 21.32 66.00 21.32L66.00 21.32ZM103.74 32.72Q103.74 33.84 103.61 35.10L103.61 35.10L84.63 35.10Q84.85 38.61 87.03 40.58Q89.22 42.55 92.34 42.55L92.34 42.55Q94.90 42.55 96.61 41.36Q98.32 40.17 99.02 38.18L99.02 38.18L103.26 38.18Q102.31 41.60 99.45 43.74Q96.59 45.89 92.34 45.89L92.34 45.89Q88.96 45.89 86.30 44.37Q83.63 42.86 82.12 40.06Q80.60 37.27 80.60 33.58L80.60 33.58Q80.60 29.90 82.07 27.13Q83.55 24.35 86.21 22.86Q88.88 21.36 92.34 21.36L92.34 21.36Q95.72 21.36 98.32 22.84Q100.92 24.31 102.33 26.89Q103.74 29.47 103.74 32.72L103.74 32.72ZM99.67 31.89Q99.67 29.64 98.67 28.01Q97.67 26.39 95.96 25.54Q94.25 24.70 92.17 24.70L92.17 24.70Q89.18 24.70 87.08 26.61Q84.98 28.51 84.67 31.89L84.67 31.89L99.67 31.89ZM130.47 45.50L125.32 45.50L112.88 31.72L112.88 45.50L108.94 45.50L108.94 15.30L112.88 15.30L112.88 29.29L125.36 15.30L130.34 15.30L116.65 30.42L130.47 45.50ZM156.56 32.72Q156.56 33.84 156.43 35.10L156.43 35.10L137.45 35.10Q137.67 38.61 139.86 40.58Q142.04 42.55 145.16 42.55L145.16 42.55Q147.72 42.55 149.43 41.36Q151.14 40.17 151.84 38.18L151.84 38.18L156.08 38.18Q155.13 41.60 152.27 43.74Q149.41 45.89 145.16 45.89L145.16 45.89Q141.78 45.89 139.12 44.37Q136.45 42.86 134.94 40.06Q133.42 37.27 133.42 33.58L133.42 33.58Q133.42 29.90 134.89 27.13Q136.37 24.35 139.03 22.86Q141.70 21.36 145.16 21.36L145.16 21.36Q148.54 21.36 151.14 22.84Q153.74 24.31 155.15 26.89Q156.56 29.47 156.56 32.72L156.56 32.72ZM152.49 31.89Q152.49 29.64 151.49 28.01Q150.49 26.39 148.78 25.54Q147.07 24.70 144.99 24.70L144.99 24.70Q142.00 24.70 139.90 26.61Q137.80 28.51 137.49 31.89L137.49 31.89L152.49 31.89ZM183.43 32.72Q183.43 33.84 183.30 35.10L183.30 35.10L164.32 35.10Q164.53 38.61 166.72 40.58Q168.91 42.55 172.03 42.55L172.03 42.55Q174.59 42.55 176.30 41.36Q178.01 40.17 178.70 38.18L178.70 38.18L182.95 38.18Q182.00 41.60 179.14 43.74Q176.28 45.89 172.03 45.89L172.03 45.89Q168.65 45.89 165.99 44.37Q163.32 42.86 161.80 40.06Q160.29 37.27 160.29 33.58L160.29 33.58Q160.29 29.90 161.76 27.13Q163.23 24.35 165.90 22.86Q168.56 21.36 172.03 21.36L172.03 21.36Q175.41 21.36 178.01 22.84Q180.61 24.31 182.02 26.89Q183.43 29.47 183.43 32.72L183.43 32.72ZM179.35 31.89Q179.35 29.64 178.36 28.01Q177.36 26.39 175.65 25.54Q173.94 24.70 171.86 24.70L171.86 24.70Q168.87 24.70 166.77 26.61Q164.66 28.51 164.36 31.89L164.36 31.89L179.35 31.89ZM192.57 26.13Q193.74 24.09 196.06 22.73Q198.38 21.36 201.45 21.36L201.45 21.36Q204.62 21.36 207.20 22.88Q209.77 24.40 211.25 27.15Q212.72 29.90 212.72 33.54L212.72 33.54Q212.72 37.14 211.25 39.95Q209.77 42.77 207.20 44.33Q204.62 45.89 201.45 45.89L201.45 45.89Q198.42 45.89 196.10 44.52Q193.78 43.16 192.57 41.12L192.57 41.12L192.57 56.77L188.63 56.77L188.63 21.75L192.57 21.75L192.57 26.13ZM208.69 33.54Q208.69 30.85 207.61 28.86Q206.52 26.87 204.68 25.83Q202.84 24.79 200.63 24.79L200.63 24.79Q198.46 24.79 196.62 25.85Q194.78 26.91 193.68 28.92Q192.57 30.94 192.57 33.58L192.57 33.58Q192.57 36.27 193.68 38.28Q194.78 40.30 196.62 41.36Q198.46 42.42 200.63 42.42L200.63 42.42Q202.84 42.42 204.68 41.36Q206.52 40.30 207.61 38.28Q208.69 36.27 208.69 33.54L208.69 33.54ZM239.59 32.72Q239.59 33.84 239.46 35.10L239.46 35.10L220.48 35.10Q220.69 38.61 222.88 40.58Q225.07 42.55 228.19 42.55L228.19 42.55Q230.75 42.55 232.46 41.36Q234.17 40.17 234.86 38.18L234.86 38.18L239.11 38.18Q238.16 41.60 235.30 43.74Q232.44 45.89 228.19 45.89L228.19 45.89Q224.81 45.89 222.14 44.37Q219.48 42.86 217.96 40.06Q216.45 37.27 216.45 33.58L216.45 33.58Q216.45 29.90 217.92 27.13Q219.39 24.35 222.06 22.86Q224.72 21.36 228.19 21.36L228.19 21.36Q231.57 21.36 234.17 22.84Q236.77 24.31 238.18 26.89Q239.59 29.47 239.59 32.72L239.59 32.72ZM235.51 31.89Q235.51 29.64 234.52 28.01Q233.52 26.39 231.81 25.54Q230.10 24.70 228.02 24.70L228.02 24.70Q225.03 24.70 222.92 26.61Q220.82 28.51 220.52 31.89L220.52 31.89L235.51 31.89ZM248.73 25.61Q249.77 23.57 251.70 22.45Q253.63 21.32 256.40 21.32L256.40 21.32L256.40 25.39L255.36 25.39Q248.73 25.39 248.73 32.59L248.73 32.59L248.73 45.50L244.79 45.50L244.79 21.75L248.73 21.75L248.73 25.61Z" transform="translate(0, 0)"></path></g></svg></g></svg>